# generated from PmQm by Jehee Lee
:FULLY-SPECIFIED
:DEGREES
341
root 160.2088944 38.66467918 18.29888148 -2.79835899 -30.90949732 6.31077716
RightUpLeg -16.13807177 -1.393332628 -6.010832669
RightLeg 68.93863793 -0.8677952226 -7.822318371
RightFoot 16.59205169 14.73498055 -17.95679862
RightToes 2.32829e-010 -1.59028e-015 9.93923e-017
Spine -2.856157769 0.6187381506 -5.756804185
Spine1 10.38365111 1.735342924 -6.199289837
HEad -13.7183101 -1.709066312 3.392002192
LeftShoulder1 9.93923e-017 0 1.22299e-017
LeftArm -3.04647195 35.68148397 -74.89676105
LeftForeArm -11.82898643 -8.501741189 -5.632088858
LeftHand 0.9875641013 6.984624283 -4.765141167
RightShoulder 1.98785e-016 -4.96962e-017 1.55301e-017
RightArm 17.60953609 -37.98053966 91.08915343
RightForeArm -36.66890338 18.78113891 -4.826028422
RightHand 1.091498337 -10.80014493 -3.599094096
LeftUpLeg -21.63149245 -3.275836349 1.807875596
LeftLeg 24.97521457 0 0
LeftFoot -2.363709732 4.382399023 -6.525594646
LeftToes 8.82235e-011 9.04645e-011 1.87288e-011
342
root 159.4234298 39.02542151 19.49370364 -1.930058134 -31.62919087 4.850160323
RightUpLeg -19.04886902 -1.160894709 -4.114321634
RightLeg 67.28019621 1.392420121 -6.13208774
RightFoot 10.99970003 11.5633036 -15.39629983
RightToes 2.32829e-010 -1.59028e-015 9.93923e-017
Spine -4.312299703 -0.2580906876 -5.801454899
Spine1 10.33224637 0.3256340617 -4.306793285
HEad -11.29429783 -0.1967392694 2.469201708
LeftShoulder1 9.93923e-017 0 1.22299e-017
LeftArm 3.892258756 32.938415 -76.66533708
LeftForeArm -21.94154538 -14.60235122 -2.077212456
LeftHand 0.9536231803 6.668552731 -4.132909647
RightShoulder 1.98785e-016 -4.96962e-017 1.55301e-017
RightArm 20.15620794 -42.50778794 90.18270801
RightForeArm -36.62930096 18.03878927 -3.25250164
RightHand 1.071151128 -10.66615294 -3.036779223
LeftUpLeg -18.22021382 -2.226678791 3.151650974
LeftLeg 22.16336269 0 0
LeftFoot -3.086207214 3.655778441 -7.960337506
LeftToes 8.82235e-011 9.04645e-011 1.87288e-011
343
root 158.6521446 39.28797183 20.68283968 -1.314308342 -32.21240711 3.643254963
RightUpLeg -21.63004058 -1.141454582 -2.436588245
RightLeg 63.92825117 3.740443075 -3.496211694
RightFoot 6.617678007 9.049663233 -12.77440039
RightToes 2.32829e-010 -1.59028e-015 9.93923e-017
Spine -5.236140675 -1.245927723 -6.274248388
Spine1 10.30951282 -1.149660059 -2.52873943
HEad -9.701408642 1.141235121 1.983570146
LeftShoulder1 9.93923e-017 0 1.22299e-017
LeftArm 16.72422549 30.26290256 -78.04007378
LeftForeArm -37.62536586 -20.84961006 4.851612943
LeftHand 0.9385602329 6.549696876 -3.658997617
RightShoulder 1.98785e-016 -4.96962e-017 1.55301e-017
RightArm 22.55467937 -47.13047254 88.71891782
RightForeArm -38.00424855 18.07445 -3.593465228
RightHand 1.029765621 -10.36159872 -2.539886845
LeftUpLeg -14.94910989 -1.175777173 4.289273453
LeftLeg 20.12493597 0 0
LeftFoot -3.876311165 2.61504394 -8.980819029
LeftToes 8.82235e-011 9.04645e-011 1.87288e-011
344
root 157.8878951 39.43953648 21.87539132 -0.9962052969 -33.063693 2.871992135
RightUpLeg -23.99043621 -1.089646919 -1.240941766
RightLeg 59.03638942 5.478427471 -1.746447078
RightFoot 3.205611222 7.161154322 -9.282423445
RightToes 2.32829e-010 -1.59028e-015 9.93923e-017
Spine -6.055988923 -2.093250412 -6.988519378
Spine1 10.63178819 -2.356498729 -1.078081134
HEad -9.100403818 2.156273045 1.680536916
LeftShoulder1 9.93923e-017 0 1.22299e-017
LeftArm 28.30530204 27.23798011 -78.69667755
LeftForeArm -50.70521156 -24.46039602 12.76119251
LeftHand 0.9188544058 6.388691719 -3.277586608
RightShoulder 1.98785e-016 -4.96962e-017 1.55301e-017
RightArm 24.75042374 -51.44637745 86.65377611
RightForeArm -40.44749505 18.55256737 -5.11091825
RightHand 1.000077389 -10.09729095 -2.325464544
LeftUpLeg -11.81616881 -0.07653858809 5.163467238
LeftLeg 18.76152243 0 0
LeftFoot -4.62525689 1.720971499 -9.695683678
LeftToes 8.82235e-011 9.04645e-011 1.87288e-011
